<svg xmlns="http://www.w3.org/2000/svg" width="4320" height="900" viewBox="0 0 4320 900" role="img" aria-labelledby="title desc">
  <title id="title">Character Studio playful-console UI overview</title>
  <desc id="desc">Editable vector overview of Project Play Hub, Character Creator, and Animation Studio at 1440 by 900.</desc>
  <defs>
    <filter id="shadow" x="-20%" y="-20%" width="140%" height="160%"><feDropShadow dx="0" dy="10" stdDeviation="12" flood-color="#1E3155" flood-opacity="0.12"/></filter>
    <pattern id="checker" width="28" height="28" patternUnits="userSpaceOnUse"><rect width="28" height="28" fill="#F2F5FA"/><rect width="14" height="14" fill="#E4EAF3"/><rect x="14" y="14" width="14" height="14" fill="#E4EAF3"/></pattern>
    <style>
      .bg{fill:#F4F7FC}.surface{fill:#FFFFFF;stroke:#DBE4F1;stroke-width:2}.ink{fill:#16233B}.muted{fill:#66738A}.navy{fill:#1E3155}.tab{fill:#FFFFFF;stroke:#DBE4F1;stroke-width:2}.label{font:800 14px 'Trebuchet MS','Segoe UI',sans-serif}.small{font:700 12px 'Trebuchet MS','Segoe UI',sans-serif}.eyebrow{font:900 11px 'Trebuchet MS','Segoe UI',sans-serif;letter-spacing:2px}.title{font:900 34px 'Trebuchet MS','Segoe UI',sans-serif}.panel-title{font:900 18px 'Trebuchet MS','Segoe UI',sans-serif}.card{fill:#FFFFFF;stroke:#DBE4F1;stroke-width:2;filter:url(#shadow)}
    </style>
  </defs>
  <g id="10_Project_Play_Hub">
    <rect class="bg" width="1440" height="900"/>
    <rect class="surface" width="1440" height="74"/>
    <rect x="18" y="14" width="46" height="46" rx="16" class="navy"/><text x="41" y="44" text-anchor="middle" fill="#FFFFFF" class="label">CS</text>
    <text x="78" y="34" class="ink panel-title">Character Studio</text><text x="78" y="54" class="muted small">Frontier Heroes · Project Play Hub</text>
    <g transform="translate(270 14)"><rect width="108" height="46" rx="14" fill="#FF5F62"/><text x="54" y="29" text-anchor="middle" fill="#FFFFFF" class="label">PROJECT</text></g>
    <g transform="translate(386 14)"><rect width="100" height="46" rx="14" class="tab"/><text x="50" y="29" text-anchor="middle" class="ink label">CREATE</text></g>
    <g transform="translate(494 14)"><rect width="82" height="46" rx="14" class="tab"/><text x="41" y="29" text-anchor="middle" class="ink label">RIG</text></g>
    <g transform="translate(584 14)"><rect width="116" height="46" rx="14" class="tab"/><text x="58" y="29" text-anchor="middle" class="ink label">ANIMATE</text></g>
    <g transform="translate(708 14)"><rect width="94" height="46" rx="14" class="tab"/><text x="47" y="29" text-anchor="middle" class="ink label">EQUIP</text></g>
    <g transform="translate(810 14)"><rect width="100" height="46" rx="14" class="tab"/><text x="50" y="29" text-anchor="middle" class="ink label">EXPORT</text></g>
    <rect x="1268" y="15" width="154" height="44" rx="14" class="surface"/><text x="1345" y="42" text-anchor="middle" class="muted label">⌘ Search</text>
    <rect x="18" y="92" width="1028" height="252" rx="26" class="card"/><text x="44" y="128" class="muted eyebrow">PROJECT PLAY HUB</text><text x="44" y="178" class="ink title">Build heroes, animate stories.</text><text x="44" y="212" class="muted label">Continue Frontier Heroes or start a production-ready package.</text>
    <rect x="44" y="248" width="194" height="56" rx="16" class="navy"/><text x="141" y="282" text-anchor="middle" fill="#FFFFFF" class="label">Open selected project</text><rect x="250" y="248" width="126" height="56" rx="16" class="surface"/><text x="313" y="282" text-anchor="middle" class="ink label">New project</text><circle cx="900" cy="214" r="82" fill="#FF5F62" opacity="0.16"/><circle cx="958" cy="178" r="44" fill="#4AB8FF" opacity="0.28"/>
    <rect x="18" y="360" width="1028" height="232" rx="26" class="card"/><text x="44" y="396" class="muted eyebrow">RECENT PROJECTS</text>
    <g transform="translate(44 420)"><rect width="306" height="142" rx="20" fill="#FFFFFF" stroke="#1E3155" stroke-width="3"/><rect x="18" y="18" width="56" height="56" rx="18" fill="#FF5F62"/><text x="92" y="45" class="ink panel-title">Frontier Heroes</text><text x="92" y="68" class="muted small">12 characters · autosaved</text><rect x="18" y="92" width="126" height="28" rx="14" fill="#E7F8F1"/><text x="81" y="111" text-anchor="middle" fill="#167453" class="small">READY</text></g>
    <g transform="translate(368 420)"><rect width="306" height="142" rx="20" class="surface"/><rect x="18" y="18" width="56" height="56" rx="18" fill="#8D72FF"/><text x="92" y="45" class="ink panel-title">Creature Pack</text><text x="92" y="68" class="muted small">8 directional rigs</text></g>
    <g transform="translate(692 420)"><rect width="306" height="142" rx="20" class="surface"/><rect x="18" y="18" width="56" height="56" rx="18" fill="#FF9B4B"/><text x="92" y="45" class="ink panel-title">Weapon Lab</text><text x="92" y="68" class="muted small">24 grip profiles</text></g>
    <rect x="1060" y="92" width="362" height="500" rx="26" class="card"/><text x="1086" y="128" class="muted eyebrow">PRODUCTION READINESS</text><text x="1086" y="164" class="ink panel-title">Ready to create</text>
    <g class="small"><text x="1086" y="212" class="ink">Project format</text><text x="1392" y="212" text-anchor="end" fill="#167453">✓ Current</text><line x1="1086" y1="228" x2="1392" y2="228" stroke="#DBE4F1"/><text x="1086" y="264" class="ink">Asset registry</text><text x="1392" y="264" text-anchor="end" class="ink">2,084 parts</text><line x1="1086" y1="280" x2="1392" y2="280" stroke="#DBE4F1"/><text x="1086" y="316" class="ink">Coverage</text><text x="1392" y="316" text-anchor="end" class="ink">8 directions</text><line x1="1086" y1="332" x2="1392" y2="332" stroke="#DBE4F1"/><text x="1086" y="368" class="ink">Recovery</text><text x="1392" y="368" text-anchor="end" fill="#167453">✓ Healthy</text></g>
    <rect y="858" width="1440" height="42" class="navy"/><text x="18" y="884" fill="#FFFFFF" class="small">● AUTOSAVED</text><text x="160" y="884" fill="#FFFFFF" class="small">Character valid · 0 compatibility conflicts</text><text x="1414" y="884" text-anchor="end" fill="#FFFFFF" class="small">A Select   B Back   X Randomize   Y Validate</text>
  </g>
  <g id="20_Character_Creator" transform="translate(1440 0)">
    <rect class="bg" width="1440" height="900"/><rect class="surface" width="1440" height="74"/><rect x="18" y="14" width="46" height="46" rx="16" class="navy"/><text x="41" y="44" text-anchor="middle" fill="#FFFFFF" class="label">CS</text><text x="78" y="34" class="ink panel-title">Character Studio</text><text x="78" y="54" class="muted small">Character Creator</text>
    <g transform="translate(270 14)"><rect width="108" height="46" rx="14" class="tab"/><text x="54" y="29" text-anchor="middle" class="ink label">PROJECT</text></g><g transform="translate(386 14)"><rect width="100" height="46" rx="14" fill="#4AB8FF"/><text x="50" y="29" text-anchor="middle" fill="#FFFFFF" class="label">CREATE</text></g><g transform="translate(494 14)"><rect width="82" height="46" rx="14" class="tab"/><text x="41" y="29" text-anchor="middle" class="ink label">RIG</text></g><g transform="translate(584 14)"><rect width="116" height="46" rx="14" class="tab"/><text x="58" y="29" text-anchor="middle" class="ink label">ANIMATE</text></g><g transform="translate(708 14)"><rect width="94" height="46" rx="14" class="tab"/><text x="47" y="29" text-anchor="middle" class="ink label">EQUIP</text></g><g transform="translate(810 14)"><rect width="100" height="46" rx="14" class="tab"/><text x="50" y="29" text-anchor="middle" class="ink label">EXPORT</text></g>
    <rect x="18" y="92" width="72" height="748" rx="26" class="card"/><g class="small" text-anchor="middle"><text x="54" y="132" class="ink">BODY</text><text x="54" y="188" class="muted">HEAD</text><text x="54" y="244" class="muted">HAIR</text><text x="54" y="300" class="muted">FACE</text><text x="54" y="356" class="muted">UPPER</text><text x="54" y="412" class="muted">LOWER</text><text x="54" y="468" class="muted">HANDS</text><text x="54" y="524" class="muted">FEET</text><text x="54" y="580" class="muted">EXTRA</text><text x="54" y="636" class="muted">PROPS</text></g><rect x="28" y="106" width="52" height="40" rx="12" fill="#EAF7FF" stroke="#1E3155" stroke-width="3"/>
    <rect x="104" y="92" width="220" height="748" rx="26" class="card"/><text x="126" y="128" class="muted eyebrow">JOURNEY</text><text x="126" y="162" class="ink panel-title">Build your hero</text><rect x="126" y="184" width="176" height="44" rx="14" class="surface"/><text x="140" y="211" class="muted small">Search assets…</text><rect x="126" y="246" width="176" height="86" rx="18" fill="#FFFFFF" stroke="#1E3155" stroke-width="3"/><text x="142" y="277" class="ink label">Balanced body</text><text x="142" y="302" class="muted small">All clips compatible</text><rect x="126" y="346" width="176" height="74" rx="18" class="surface"/><text x="142" y="376" class="ink label">Athletic body</text><text x="142" y="400" class="muted small">8-direction coverage</text><rect x="126" y="744" width="176" height="56" rx="16" class="surface"/><text x="214" y="778" text-anchor="middle" class="ink label">✦ Randomize</text>
    <rect x="338" y="92" width="760" height="748" rx="26" class="card"/><text x="362" y="128" class="muted eyebrow">CHARACTER PREVIEW</text><rect x="362" y="148" width="712" height="580" rx="22" fill="url(#checker)" stroke="#DBE4F1" stroke-width="2"/>
    <g transform="translate(590 210)"><ellipse cx="130" cy="470" rx="82" ry="17" fill="#1E315522"/><circle cx="130" cy="145" r="82" fill="#D89164"/><path d="M48 130Q62 45 132 50Q202 55 212 130Q176 105 145 96Q105 116 48 130Z" fill="#382A52"/><circle cx="98" cy="145" r="8" class="ink"/><circle cx="162" cy="145" r="8" class="ink"/><path d="M105 182Q130 198 155 182" fill="none" stroke="#7A3E44" stroke-width="7" stroke-linecap="round"/><path d="M70 230Q130 198 190 230L216 350Q172 386 130 386Q88 386 44 350Z" fill="#4AB8FF" stroke="#1E3155" stroke-width="5"/><path d="M82 248L28 335L62 352L112 278M178 248L232 335L198 352L148 278" fill="#D89164" stroke="#1E3155" stroke-width="10" stroke-linejoin="round"/><path d="M92 380L78 465M168 380L182 465" stroke="#1E3155" stroke-width="26" stroke-linecap="round"/><path d="M58 462H99M161 462H202" stroke="#FF9B4B" stroke-width="22" stroke-linecap="round"/></g>
    <g transform="translate(362 750)"><rect width="74" height="50" rx="14" class="tab"/><text x="37" y="31" text-anchor="middle" class="ink label">N</text><rect x="82" width="74" height="50" rx="14" class="tab"/><text x="119" y="31" text-anchor="middle" class="ink label">NE</text><rect x="164" width="74" height="50" rx="14" class="tab"/><text x="201" y="31" text-anchor="middle" class="ink label">E</text><rect x="246" width="74" height="50" rx="14" class="tab"/><text x="283" y="31" text-anchor="middle" class="ink label">SE</text><rect x="328" width="74" height="50" rx="14" class="navy"/><text x="365" y="31" text-anchor="middle" fill="#FFFFFF" class="label">S</text><rect x="410" width="74" height="50" rx="14" class="tab"/><text x="447" y="31" text-anchor="middle" class="ink label">SW</text><rect x="492" width="74" height="50" rx="14" class="tab"/><text x="529" y="31" text-anchor="middle" class="ink label">W</text><rect x="574" width="74" height="50" rx="14" class="tab"/><text x="611" y="31" text-anchor="middle" class="ink label">NW</text></g>
    <rect x="1112" y="92" width="310" height="748" rx="26" class="card"/><text x="1136" y="128" class="muted eyebrow">BODY COLLECTION</text><text x="1136" y="162" class="ink panel-title">Balanced body</text><text x="1136" y="190" class="muted small">Compatible with all current clips</text><text x="1136" y="244" class="muted eyebrow">SKIN</text><circle cx="1158" cy="280" r="20" fill="#D89164" stroke="#1E3155" stroke-width="3"/><circle cx="1208" cy="280" r="20" fill="#A96845"/><circle cx="1258" cy="280" r="20" fill="#F1BE92"/><circle cx="1308" cy="280" r="20" fill="#7F4A35"/><text x="1136" y="344" class="muted eyebrow">HEIGHT</text><line x1="1136" y1="380" x2="1394" y2="380" stroke="#DBE4F1" stroke-width="8" stroke-linecap="round"/><circle cx="1268" cy="380" r="13" fill="#4AB8FF" stroke="#1E3155" stroke-width="3"/><rect x="1136" y="744" width="258" height="56" rx="16" fill="#4AB8FF" stroke="#1E3155" stroke-width="3"/><text x="1265" y="778" text-anchor="middle" fill="#FFFFFF" class="label">Apply &amp; validate character</text>
    <rect y="858" width="1440" height="42" class="navy"/><text x="18" y="884" fill="#FFFFFF" class="small">● AUTOSAVED</text><text x="160" y="884" fill="#FFFFFF" class="small">Character valid · 0 compatibility conflicts</text><text x="1414" y="884" text-anchor="end" fill="#FFFFFF" class="small">A Select   B Back   X Randomize   Y Validate</text>
  </g>
  <g id="40_Animation_Studio" transform="translate(2880 0)">
    <rect class="bg" width="1440" height="900"/><rect class="surface" width="1440" height="74"/><rect x="18" y="14" width="46" height="46" rx="16" class="navy"/><text x="41" y="44" text-anchor="middle" fill="#FFFFFF" class="label">CS</text><text x="78" y="34" class="ink panel-title">Character Studio</text><text x="78" y="54" class="muted small">Animation Studio</text>
    <g transform="translate(270 14)"><rect width="108" height="46" rx="14" class="tab"/><text x="54" y="29" text-anchor="middle" class="ink label">PROJECT</text></g><g transform="translate(386 14)"><rect width="100" height="46" rx="14" class="tab"/><text x="50" y="29" text-anchor="middle" class="ink label">CREATE</text></g><g transform="translate(494 14)"><rect width="82" height="46" rx="14" class="tab"/><text x="41" y="29" text-anchor="middle" class="ink label">RIG</text></g><g transform="translate(584 14)"><rect width="116" height="46" rx="14" fill="#8D72FF"/><text x="58" y="29" text-anchor="middle" fill="#FFFFFF" class="label">ANIMATE</text></g><g transform="translate(708 14)"><rect width="94" height="46" rx="14" class="tab"/><text x="47" y="29" text-anchor="middle" class="ink label">EQUIP</text></g><g transform="translate(810 14)"><rect width="100" height="46" rx="14" class="tab"/><text x="50" y="29" text-anchor="middle" class="ink label">EXPORT</text></g>
    <rect x="18" y="92" width="250" height="748" rx="26" class="card"/><text x="42" y="128" class="muted eyebrow">ANIMATION STUDIO</text><text x="42" y="162" class="ink panel-title">Walk cycle</text><rect x="42" y="190" width="202" height="68" rx="18" fill="#FFFFFF" stroke="#1E3155" stroke-width="3"/><text x="58" y="220" class="ink label">Walk_8dir</text><text x="58" y="242" class="muted small">24 frames · loop</text><rect x="42" y="270" width="202" height="58" rx="18" class="surface"/><text x="58" y="305" class="ink label">Idle_8dir</text><rect x="42" y="340" width="202" height="58" rx="18" class="surface"/><text x="58" y="375" class="ink label">Attack_sword</text><rect x="42" y="734" width="98" height="54" rx="16" fill="#8D72FF"/><text x="91" y="767" text-anchor="middle" fill="#FFFFFF" class="small">Story Track</text><rect x="146" y="734" width="98" height="54" rx="16" class="surface"/><text x="195" y="767" text-anchor="middle" class="ink small">Advanced</text>
    <rect x="282" y="92" width="794" height="748" rx="26" class="card"/><g transform="translate(306 112)"><rect width="82" height="44" rx="14" class="navy"/><text x="41" y="28" text-anchor="middle" fill="#FFFFFF" class="small">Select</text><rect x="90" width="62" height="44" rx="14" class="tab"/><text x="121" y="28" text-anchor="middle" class="ink small">IK</text><rect x="160" width="70" height="44" rx="14" class="tab"/><text x="195" y="28" text-anchor="middle" class="ink small">Mesh</text><rect x="238" width="82" height="44" rx="14" class="tab"/><text x="279" y="28" text-anchor="middle" class="ink small">Onion</text><rect x="566" width="180" height="44" rx="14" fill="#8D72FF"/><text x="656" y="28" text-anchor="middle" fill="#FFFFFF" class="label">▶ Play animation</text></g>
    <rect x="306" y="176" width="746" height="356" rx="22" fill="url(#checker)" stroke="#DBE4F1" stroke-width="2"/><g transform="translate(590 238)"><circle cx="100" cy="72" r="48" fill="#D89164"/><path d="M52 70Q64 20 104 22Q146 25 154 70Q126 52 102 47Q82 58 52 70Z" fill="#382A52"/><path d="M70 126Q104 105 138 126L154 210Q126 232 104 232Q82 232 54 210Z" fill="#4AB8FF" stroke="#1E3155" stroke-width="5"/><path d="M75 210L42 286M135 210L172 276" stroke="#1E3155" stroke-width="20" stroke-linecap="round"/><path d="M56 286H28M168 276H202" stroke="#FF9B4B" stroke-width="18" stroke-linecap="round"/></g>
    <text x="306" y="570" class="muted eyebrow">STORY TRACK</text><rect x="306" y="590" width="746" height="210" rx="20" class="surface"/><line x1="420" y1="590" x2="420" y2="800" stroke="#DBE4F1"/><text x="324" y="624" class="ink small">BODY</text><text x="324" y="674" class="ink small">EVENTS</text><text x="324" y="724" class="ink small">SOUND</text><g fill="#8D72FF"><rect x="458" y="608" width="18" height="18" rx="5" transform="rotate(45 467 617)"/><rect x="620" y="608" width="18" height="18" rx="5" transform="rotate(45 629 617)"/><rect x="782" y="608" width="18" height="18" rx="5" transform="rotate(45 791 617)"/><rect x="944" y="608" width="18" height="18" rx="5" transform="rotate(45 953 617)"/></g><line x1="458" y1="650" x2="980" y2="650" stroke="#FF8EC7" stroke-width="8" stroke-linecap="round"/>
    <rect x="1090" y="92" width="332" height="748" rx="26" class="card"/><text x="1114" y="128" class="muted eyebrow">KEY INSPECTOR</text><text x="1114" y="162" class="ink panel-title">Frame 12 / 24</text><text x="1114" y="220" class="muted eyebrow">TIME</text><rect x="1114" y="236" width="284" height="48" rx="14" class="surface"/><text x="1130" y="266" class="ink label">0.400 s</text><text x="1114" y="332" class="muted eyebrow">EASING</text><rect x="1114" y="348" width="284" height="48" rx="14" class="surface"/><text x="1130" y="378" class="ink label">Ease out</text><text x="1114" y="446" class="muted eyebrow">EVENTS</text><rect x="1114" y="462" width="284" height="78" rx="18" class="surface"/><text x="1130" y="492" class="ink label">Footstep R</text><text x="1130" y="516" class="muted small">Gameplay event · frame 12</text><rect x="1114" y="744" width="284" height="56" rx="16" fill="#8D72FF"/><text x="1256" y="778" text-anchor="middle" fill="#FFFFFF" class="label">Add key</text>
    <rect y="858" width="1440" height="42" class="navy"/><text x="18" y="884" fill="#FFFFFF" class="small">● AUTOSAVED</text><text x="160" y="884" fill="#FFFFFF" class="small">Walk_8dir · Frame 12 / 24 · 0 errors</text><text x="1414" y="884" text-anchor="end" fill="#FFFFFF" class="small">A Select   B Back   X Add key   Y Validate</text>
  </g>
</svg>
